<?xml version="1.0" standalone="no"?>
<!DOCTYPE svg PUBLIC "-//W3C//DTD SVG 20010904//EN"
 "http://www.w3.org/TR/2001/REC-SVG-20010904/DTD/svg10.dtd">
<svg version="1.0" xmlns="http://www.w3.org/2000/svg"
 width="300.000000pt" height="500.000000pt" viewBox="0 0 300.000000 500.000000"
 preserveAspectRatio="xMidYMid meet">

<g transform="translate(0.000000,500.000000) scale(0.100000,-0.100000)"
fill="#000000" stroke="none">
<path d="M570 4783 c-30 -20 -96 -78 -146 -129 -255 -258 -391 -603 -388 -984
3 -349 119 -637 342 -852 137 -131 172 -139 172 -43 0 176 85 366 215 482 60
54 183 121 238 130 30 4 36 2 42 -17 4 -13 25 -42 46 -65 l39 -42 -51 -6 c-55
-7 -119 -35 -158 -70 -40 -37 -63 -102 -66 -189 -4 -124 37 -186 142 -213 l48
-12 -1 -154 c-3 -356 -74 -644 -279 -1133 -21 -49 -42 -115 -48 -146 -11 -56
-11 -56 -71 -84 -78 -37 -148 -110 -175 -181 -23 -60 -25 -90 -12 -146 7 -32
4 -42 -30 -93 -21 -31 -43 -74 -49 -94 -5 -20 -10 -125 -10 -233 0 -177 2
-197 18 -212 17 -16 108 -17 1109 -17 1043 0 1091 1 1106 18 15 16 17 46 17
213 0 215 -8 262 -59 338 -25 37 -28 48 -20 75 14 47 11 80 -12 142 -33 88
-123 174 -210 203 -32 10 -37 17 -41 49 -5 35 -30 100 -132 350 -119 290 -183
597 -193 918 l-6 191 39 7 c56 10 111 50 130 94 12 28 15 59 11 127 -4 100
-17 133 -69 181 -44 43 -85 62 -146 70 l-51 7 39 45 c22 24 40 51 40 58 0 23
17 24 74 4 96 -33 178 -82 239 -144 102 -103 177 -293 177 -447 0 -67 12 -79
58 -60 43 18 213 196 271 282 239 360 253 897 34 1333 -63 126 -126 210 -248
331 -120 119 -186 168 -205 149 -5 -5 -16 -46 -24 -89 -33 -188 -130 -370
-267 -501 -66 -63 -185 -154 -200 -154 -5 0 -33 15 -62 34 -28 19 -83 45 -120
58 -65 22 -68 24 -65 53 3 28 6 30 45 33 75 5 125 88 90 148 -23 40 -231 294
-240 294 -13 0 -67 -62 -171 -195 -91 -117 -102 -148 -70 -193 20 -29 66 -52
104 -52 27 0 30 -3 30 -34 0 -32 -2 -34 -67 -55 -38 -12 -94 -38 -125 -57 -67
-41 -62 -42 -174 42 -194 145 -323 354 -356 572 -11 72 -21 102 -37 102 -3 0
-31 -17 -61 -37z m-1 -329 c60 -143 114 -226 216 -329 85 -86 183 -159 239
-178 7 -2 0 -27 -16 -60 -36 -73 -62 -205 -55 -274 5 -52 4 -54 -21 -64 -15
-6 -41 -13 -58 -16 -29 -5 -31 -3 -37 33 -13 74 0 205 28 301 6 17 -3 28 -52
61 -105 73 -203 178 -268 290 -16 28 -33 52 -36 52 -11 0 -80 -138 -105 -212
-28 -85 -50 -194 -59 -303 -13 -145 32 -370 105 -532 l28 -62 -21 -66 c-12
-36 -24 -65 -27 -65 -12 1 -74 95 -109 167 -124 253 -143 600 -50 884 52 160
221 429 269 429 4 0 17 -25 29 -56z m1922 19 c102 -113 205 -316 246 -481 21
-87 27 -139 30 -272 6 -192 -14 -315 -72 -458 -34 -84 -120 -232 -134 -232 -4
0 -18 31 -30 68 l-23 69 35 80 c55 124 75 202 89 338 24 241 -27 489 -134 650
l-32 47 -32 -63 c-55 -110 -173 -234 -303 -319 -23 -15 -23 -17 -8 -61 22 -65
31 -156 22 -243 -8 -85 -9 -86 -78 -56 l-45 20 5 64 c7 80 -11 185 -43 255
-13 29 -24 57 -24 62 0 4 27 22 59 40 162 85 331 289 397 477 10 28 24 52 30
52 7 0 27 -17 45 -37z m-610 -1403 c43 -12 57 -26 65 -67 5 -24 1 -36 -15 -52
-21 -21 -27 -21 -441 -21 -414 0 -420 0 -441 21 -16 16 -20 28 -15 52 8 40 22
55 60 66 42 12 742 13 787 1z m434 -1995 c49 -24 76 -105 39 -119 -9 -3 -392
-6 -853 -6 -638 0 -840 3 -849 12 -31 31 -3 102 48 121 8 3 368 6 798 6 688 1
788 -1 817 -14z m66 -305 c45 -13 71 -50 67 -93 l-3 -32 -950 0 -950 0 -3 32
c-4 42 22 81 62 92 44 13 1731 14 1777 1z"/>
</g>
</svg>
