<?xml version="1.0" standalone="no"?>
<!DOCTYPE svg PUBLIC "-//W3C//DTD SVG 20010904//EN"
 "http://www.w3.org/TR/2001/REC-SVG-20010904/DTD/svg10.dtd">
<svg version="1.0" xmlns="http://www.w3.org/2000/svg"
 width="300.000000pt" height="500.000000pt" viewBox="0 0 300.000000 500.000000"
 preserveAspectRatio="xMidYMid meet">

<g transform="translate(0.000000,500.000000) scale(0.100000,-0.100000)"
fill="#000000" stroke="none">
<path d="M581 4824 c-79 -53 -224 -206 -292 -307 -233 -347 -297 -813 -167
-1202 55 -165 129 -286 253 -412 107 -109 185 -154 185 -105 0 9 5 57 10 105
19 165 109 338 223 428 56 45 172 105 223 115 25 5 32 2 42 -20 6 -14 27 -43
46 -64 l36 -39 -49 -6 c-75 -9 -144 -49 -183 -104 -30 -45 -33 -55 -36 -144
-3 -74 -1 -103 12 -127 22 -42 72 -78 129 -92 l47 -12 0 -117 c0 -111 -27
-372 -51 -491 -13 -68 -50 -200 -84 -305 -24 -74 -47 -129 -125 -305 -38 -85
-66 -166 -74 -216 -6 -35 -13 -42 -59 -67 -67 -35 -130 -96 -159 -155 -19 -38
-23 -63 -23 -133 0 -66 -4 -91 -16 -105 -9 -11 -27 -39 -40 -64 -23 -43 -24
-57 -27 -256 -3 -211 -3 -212 20 -228 20 -14 125 -16 1084 -16 1008 0 1062 1
1077 18 14 15 17 49 18 223 2 204 2 205 -26 267 -15 34 -33 66 -40 72 -8 7
-11 33 -7 84 4 64 1 81 -21 127 -13 30 -34 63 -45 75 -42 44 -108 92 -143 104
-32 11 -37 18 -42 51 -3 21 -31 100 -62 176 -94 229 -133 336 -170 465 -48
168 -85 424 -92 636 l-6 172 35 0 c42 0 94 33 125 79 20 29 23 47 23 120 0 62
-6 97 -19 127 -34 76 -113 130 -202 141 l-50 6 34 36 c19 20 40 47 47 60 10
20 17 22 47 18 93 -15 246 -113 307 -195 76 -104 136 -278 136 -394 0 -67 12
-78 61 -57 42 17 164 139 232 230 94 128 151 258 190 428 17 79 21 130 21 286
1 173 -2 201 -27 311 -63 277 -179 487 -371 675 -87 85 -160 139 -188 139 -12
0 -19 -10 -22 -32 -15 -97 -19 -118 -38 -173 -27 -79 -91 -208 -133 -265 -58
-79 -266 -268 -296 -270 -4 0 -38 18 -75 40 -38 22 -93 48 -121 56 -51 15 -53
17 -53 50 0 34 1 34 44 34 37 0 48 5 70 31 18 21 26 42 26 69 0 33 -14 55
-116 184 -63 80 -122 146 -130 146 -17 0 -35 -20 -158 -175 -109 -136 -116
-162 -68 -216 21 -24 38 -32 75 -36 45 -5 47 -7 47 -38 0 -32 -2 -34 -67 -54
-38 -11 -94 -37 -126 -57 l-58 -36 -69 46 c-224 149 -360 360 -404 626 -8 44
-16 66 -26 68 -8 1 -39 -14 -69 -34z m14 -344 c78 -183 221 -356 353 -430 107
-60 101 -51 70 -112 -34 -69 -48 -139 -48 -243 l0 -84 -37 -10 c-84 -22 -78
-28 -81 88 -2 68 3 128 13 172 8 38 15 72 15 76 0 5 -29 28 -64 51 -75 49
-165 143 -223 232 -76 117 -65 113 -105 39 -83 -150 -123 -314 -122 -509 1
-161 22 -267 85 -424 l41 -105 -16 -47 c-9 -26 -16 -56 -16 -66 0 -31 -16 -20
-59 41 -200 286 -226 760 -61 1106 69 145 199 322 219 299 4 -5 20 -38 36 -74z
m1876 57 c69 -61 189 -264 233 -395 38 -111 59 -253 60 -397 1 -237 -53 -431
-166 -599 -38 -57 -58 -68 -59 -34 0 13 -8 43 -18 68 l-17 45 34 74 c135 300
129 658 -16 934 -25 48 -49 87 -53 87 -4 0 -22 -26 -39 -59 -57 -106 -146
-199 -299 -311 -20 -15 -21 -16 -4 -60 17 -47 25 -267 11 -302 -7 -17 -11 -16
-59 5 l-52 22 2 90 c2 95 -14 175 -49 247 -11 23 -20 43 -20 44 0 1 28 18 63
37 83 48 183 131 234 198 55 72 137 214 160 278 10 28 20 51 23 51 3 0 17 -11
31 -23z m-905 -448 c123 -22 230 -105 282 -217 23 -49 27 -70 27 -152 0 -82
-4 -103 -27 -152 -71 -152 -245 -247 -398 -218 -155 29 -268 130 -306 272 -57
214 77 424 298 467 60 12 58 12 124 0z m341 -969 c37 -22 51 -60 35 -95 -16
-34 -60 -37 -488 -33 -399 3 -404 4 -404 55 0 34 16 60 48 77 22 13 91 15 402
16 356 0 377 -1 407 -20z m-158 -346 l31 -6 0 -92 c0 -201 37 -467 91 -656 39
-136 55 -182 155 -437 46 -117 84 -217 84 -223 0 -12 -1206 -14 -1214 -2 -2 4
4 28 14 52 164 396 243 639 279 850 16 99 41 364 41 441 0 62 2 68 23 72 36 7
461 8 496 1z m582 -1632 c23 -25 29 -42 27 -65 l-3 -32 -834 -3 c-608 -1 -837
1 -847 9 -31 25 0 99 50 119 11 5 371 8 799 7 l779 -2 29 -33z m59 -287 c25
-15 38 -31 44 -57 18 -73 88 -68 -928 -68 -696 0 -915 3 -924 12 -7 7 -12 26
-12 43 0 38 34 74 82 85 18 5 409 8 868 7 822 -2 836 -2 870 -22z"/>
</g>
</svg>
