<?xml version="1.0" standalone="no"?>
<!DOCTYPE svg PUBLIC "-//W3C//DTD SVG 20010904//EN"
 "http://www.w3.org/TR/2001/REC-SVG-20010904/DTD/svg10.dtd">
<svg version="1.0" xmlns="http://www.w3.org/2000/svg"
 width="289.000000pt" height="500.000000pt" viewBox="0 0 289.000000 500.000000"
 preserveAspectRatio="xMidYMid meet">

<g transform="translate(0.000000,500.000000) scale(0.100000,-0.100000)"
fill="#000000" stroke="none">
<path d="M1330 4728 c-32 -24 -48 -46 -61 -82 -15 -44 -27 -57 -102 -112 -134
-98 -242 -210 -309 -322 -77 -126 -102 -197 -127 -367 l-17 -110 -44 -3 c-25
-2 -50 -8 -57 -14 -18 -15 -18 -277 -1 -301 8 -10 31 -17 58 -19 l45 -3 -1
-130 c0 -149 -2 -156 -115 -448 -38 -98 -82 -222 -96 -275 l-27 -97 -4 -607
-3 -606 -39 -16 c-122 -49 -201 -198 -171 -323 11 -45 10 -53 -13 -103 -25
-53 -26 -61 -26 -265 0 -116 4 -215 8 -221 22 -33 42 -34 1195 -34 1076 0
1146 1 1166 18 22 17 22 22 19 242 -3 205 -5 229 -24 265 -18 35 -19 44 -8 70
12 30 17 71 15 135 -2 56 -70 152 -142 197 l-59 38 0 565 c1 341 -3 597 -10
646 -13 101 -48 219 -129 434 -80 212 -101 299 -101 423 l0 97 49 0 c44 0 50
3 61 29 13 33 11 274 -3 288 -5 4 -34 10 -65 13 l-57 5 -7 95 c-11 157 -56
284 -149 422 -57 85 -187 212 -283 279 -75 51 -81 58 -99 112 -26 80 -67 110
-156 115 -63 4 -69 2 -111 -30z m246 -350 c60 -40 132 -95 159 -122 124 -124
198 -283 211 -453 l7 -83 -508 0 -508 0 7 83 c13 170 93 339 217 459 75 71
253 187 290 188 9 0 65 -32 125 -72z m-532 -939 c9 -66 40 -99 94 -99 25 0 49
8 66 21 22 18 26 28 26 75 l0 54 205 0 205 0 0 -50 c0 -41 5 -56 25 -75 26
-27 80 -34 117 -14 24 13 48 67 48 109 0 30 0 30 59 30 l58 0 7 -98 c4 -54 4
-105 1 -113 -3 -8 -42 -27 -88 -43 -45 -16 -127 -51 -182 -77 -54 -27 -102
-49 -105 -49 -3 0 -24 16 -45 36 -22 20 -52 43 -68 51 -38 19 -71 6 -126 -49
l-40 -41 -123 56 c-68 31 -153 66 -190 79 l-68 23 0 112 0 113 59 0 58 0 7
-51z m-59 -410 c86 -28 93 -33 73 -56 -29 -34 -68 -118 -79 -176 -16 -79 -1
-132 45 -154 30 -14 35 -14 58 1 14 9 40 43 57 76 45 85 74 115 139 147 50 24
68 27 152 27 108 0 175 -22 226 -75 29 -30 29 -30 34 -193 6 -180 14 -206 72
-230 40 -17 62 -11 93 26 25 29 25 32 25 212 0 198 -7 240 -54 314 -15 24 -26
45 -24 47 2 1 41 16 87 33 84 31 111 30 111 -2 0 -11 50 -145 75 -201 7 -16
30 -75 50 -130 71 -190 68 -166 72 -837 l4 -608 -374 0 -374 0 -7 131 c-3 72
-9 135 -12 140 -3 5 -23 9 -45 9 -52 0 -115 33 -139 73 -15 24 -20 50 -20 107
0 46 -5 81 -12 88 -7 7 -42 12 -85 12 -88 0 -140 22 -172 73 -18 29 -21 50
-21 141 l0 106 -62 0 c-82 0 -132 15 -171 50 -31 28 -32 31 -35 124 -6 157 23
276 131 531 30 72 62 152 72 178 13 37 21 47 34 42 9 -3 43 -15 76 -26z m1375
-1985 c14 -10 31 -24 38 -32 15 -20 16 -64 0 -80 -9 -9 -239 -12 -975 -12
-949 0 -962 0 -973 20 -15 28 -2 66 32 95 l30 25 912 0 c830 0 914 -1 936 -16z
m46 -333 c48 -29 53 -95 10 -123 -14 -10 -1988 -10 -2002 0 -43 28 -38 94 10
123 30 18 65 19 991 19 926 0 961 -1 991 -19z"/>
</g>
</svg>
